<svg width="117" height="83" viewBox="0 0 117 83" fill="none" xmlns="http://www.w3.org/2000/svg">
<g id="logo 1" clip-path="url(#clip0_58_1354)">
<path id="Path 103" d="M63.6283 65.5607V82.3759H59.713L52.2969 73.417V82.3759H47.6414V65.5607H51.5545L58.9706 74.5196V65.5607H63.6283Z" fill="white"/>
<path id="Path 104" d="M109.272 69.3562L104.641 82.3743H100.225L97.7764 75.2894L95.2322 82.3743H90.817L86.1854 69.3562H90.5023L93.1655 77.2333L95.9292 69.3562H99.817L102.504 77.3063L105.264 69.3562H109.272Z" fill="white"/>
<path id="Path 105" d="M83.0516 75.6291C83.0516 76.9511 82.6599 78.2436 81.9259 79.3428C81.192 80.4421 80.1489 81.2989 78.9284 81.8048C77.708 82.3108 76.365 82.4431 75.0694 82.1852C73.7738 81.9273 72.5837 81.2906 71.6496 80.3558C70.7155 79.4209 70.0794 78.2298 69.8216 76.9331C69.5639 75.6365 69.6962 74.2924 70.2017 73.071C70.7073 71.8495 71.5633 70.8055 72.6617 70.071C73.7601 69.3365 75.0514 68.9445 76.3724 68.9445C78.1439 68.9445 79.8427 69.6487 81.0953 70.9023C82.3479 72.1559 83.0516 73.8562 83.0516 75.6291Z" fill="#E94833"/>
<path id="Path 106" d="M84.9305 12.8584C80.2092 14.3365 76.0396 17.1983 72.961 21.0737C69.8824 24.949 68.0363 29.6597 67.6615 34.5964H67.5847V42.7769H64.021V42.7093C60.2916 42.4268 56.7035 41.161 53.6214 39.0407C50.5392 36.9203 48.073 34.0211 46.4735 30.6376C44.8739 27.2541 44.198 23.507 44.5145 19.7774C44.8309 16.0477 46.1285 12.4684 48.2753 9.4033C50.422 6.33823 53.3414 3.89668 56.7367 2.32688C60.1319 0.757084 63.882 0.115014 67.6055 0.465931C71.3291 0.816847 74.8934 2.14824 77.9362 4.32477C80.979 6.5013 83.3917 9.44534 84.929 12.8576" fill="#093869"/>
<path id="Path 107" d="M86.8119 19.9787V42.78H67.5852V34.5964H67.662C68.0367 29.6597 69.8828 24.949 72.9614 21.0737C76.0401 17.1983 80.2097 14.3365 84.931 12.8584C85.9475 15.1065 86.562 17.5157 86.7466 19.9763L86.8119 19.9787Z" fill="#A62B4C"/>
<path id="Path 108" d="M116.999 36.4611C116.999 42.6956 114.646 48.7 110.41 53.2714C106.174 57.8428 100.369 60.6436 94.157 61.1127V61.1895H78.5447C78.5447 61.1895 67.7429 60.4404 67.7429 70.1991L67.584 57.6474V42.7777H86.8107V19.9755H86.7439C86.5595 17.5148 85.945 15.1056 84.9282 12.8576C88.6271 11.7025 92.5455 11.4342 96.3671 12.0743C100.189 12.7144 103.806 14.245 106.928 16.5424C110.049 18.8398 112.587 21.8397 114.337 25.2998C116.086 28.7599 116.998 32.5832 116.999 36.4611Z" fill="#E94833"/>
<path id="Path 109" d="M5.15982 49.4154H0V45.6444H15.0472V49.4154H9.91122V62.455H5.15982V49.4154Z" fill="white"/>
<path id="Path 110" d="M34.0063 45.6444V62.455H29.2542V55.898H22.7739V62.455H18.0225V45.6444H22.7739V51.9617H29.2542V45.6444H34.0063Z" fill="white"/>
<path id="Path 111" d="M49.8213 59.1911H42.7184L41.3979 62.455H36.5498L43.9652 45.6428H48.6483L56.0851 62.455H51.141L49.8213 59.1911ZM48.4302 55.6836L46.2699 50.3052L44.1103 55.6836H48.4302Z" fill="white"/>
<path id="Rectangle 6" d="M63.3793 45.6444H58.6279V62.4573H63.3793V45.6444Z" fill="white"/>
</g>
<defs>
<clipPath id="clip0_58_1354">
<rect width="117" height="82" fill="white" transform="translate(0 0.373535)"/>
</clipPath>
</defs>
</svg>
